# xmcd
#
# Track frame offsets: 
#        150
#        15106
#        28243
#        36960
#        49971
#        65968
#        79930
#        92596
#        102512
#        118681
#        132462
#        143339
#        154172
#        162483
#        172437
#        190599
#
# Disc length: 2756 seconds
#
# Revision: 0
# Processed by: cddbd v1.5.1PL0 Copyright (c) Steve Scherf et al.
# Submitted via: ExactAudioCopy v0.95a5
#
DISCID=e10ac210
DTITLE=Zane Williams - Step in the RIght Direction
DYEAR=1900
DGENRE=Country
TTITLE0=Rain From a Clear Blue Sky
TTITLE1=Blowtorch Kiss
TTITLE2=Instrumental
TTITLE3=Livin' Alone (Ain't So Bad)
TTITLE4=Emotional Assault
TTITLE5=The Tree Song
TTITLE6=Instrumental
TTITLE7=Re-Leave Me Baby
TTITLE8=God Please Take Care of My Baby
TTITLE9=Instrumental
TTITLE10=Slow
TTITLE11=Instrumental
TTITLE12=Instrumental
TTITLE13=Sailing
TTITLE14=A Step in the Right Direction
TTITLE15=Instrumental
EXTD=
EXTT0=
EXTT1=
EXTT2=
EXTT3=
EXTT4=
EXTT5=
EXTT6=
EXTT7=
EXTT8=
EXTT9=
EXTT10=
EXTT11=
EXTT12=
EXTT13=
EXTT14=
EXTT15=
PLAYORDER=
